<svg width="150" height="50" viewBox="0 0 150 50" fill="none" xmlns="http://www.w3.org/2000/svg">
<path d="M28.6926 3.7027L28.6964 3.70149L28.7323 3.69005C28.7667 3.67917 28.8218 3.66199 28.8964 3.63948C29.0457 3.59445 29.2725 3.52823 29.5666 3.44876C30.1556 3.28961 31.0104 3.0784 32.0501 2.87756C34.1439 2.47313 36.9189 2.12434 39.7548 2.29384C42.6021 2.46403 45.3524 3.14692 47.5483 4.66289C49.6817 6.13573 51.4796 8.52126 52.2704 12.5041C53.0237 16.2977 52.2589 21.403 50.4005 26.6266C48.5571 31.8082 45.745 36.8026 42.7433 40.309C41.2407 42.0642 39.7579 43.3675 38.4025 44.1557C37.041 44.9474 35.9895 45.1203 35.2131 44.9662C34.4885 44.8223 33.5844 44.3101 32.6546 42.8009C31.7034 41.2568 30.8224 38.8066 30.2074 35.1435L25.7796 35.0876C24.3172 42.6265 21.8787 44.6057 20.2464 44.8941C19.3471 45.053 18.1867 44.8406 16.7499 44.0253C15.3177 43.2125 13.7696 41.8856 12.2142 40.1175C9.10485 36.5828 6.22316 31.5779 4.36157 26.4264C2.4818 21.2246 1.762 16.208 2.58991 12.5644C3.42412 8.89314 5.27811 6.61016 7.55451 5.14517C9.89703 3.63763 12.8185 2.91737 15.8156 2.6838C18.7972 2.45143 21.7028 2.71223 23.8856 3.04064C24.9708 3.20391 25.8626 3.3816 26.4774 3.51698C26.7845 3.58459 27.0215 3.64145 27.178 3.68036C27.2562 3.69981 27.3142 3.71476 27.3506 3.7243L27.389 3.73444L27.394 3.73578L27.3952 3.73612L27.3957 3.73625L27.3959 3.73631L28.0483 3.91502L28.6904 3.70342L28.6905 3.7034L28.6913 3.70313L28.6926 3.7027Z" fill="white" stroke="#F9D923" stroke-width="4.5"/>
<path d="M22.837 26C26.9738 28.6323 28.7325 28.4491 32.7908 26.164" stroke="#F9D923" stroke-width="2.5"/>
<path d="M22.5437 17.4361C22.5437 20.4081 20.3831 22.6061 17.9661 22.6061C15.5491 22.6061 13.3885 20.4081 13.3885 17.4361C13.3885 14.4642 15.5491 12.2661 17.9661 12.2661C20.3831 12.2661 22.5437 14.4642 22.5437 17.4361Z" fill="white" stroke="#F9D923" stroke-width="2.5"/>
<path d="M41.3066 17.4361C41.3066 20.4081 39.146 22.6061 36.729 22.6061C34.3121 22.6061 32.1515 20.4081 32.1515 17.4361C32.1515 14.4642 34.3121 12.2661 36.729 12.2661C39.146 12.2661 41.3066 14.4642 41.3066 17.4361Z" fill="white" stroke="#F9D923" stroke-width="2.5"/>
<path d="M23.1756 17.3275C23.1756 20.2608 21.1973 23.0161 19.9377 23.0161C18.6782 23.0161 17.6571 20.2608 17.6571 17.3275C17.6571 14.3941 18.6782 12.0161 19.9377 12.0161C21.1973 12.0161 23.1756 14.3941 23.1756 17.3275Z" fill="#F9D923"/>
<path d="M41.9386 17.3275C41.9386 20.2608 39.9602 23.0161 38.7007 23.0161C37.4411 23.0161 36.42 20.2608 36.42 17.3275C36.42 14.3941 37.4411 12.0161 38.7007 12.0161C39.9602 12.0161 41.9386 14.3941 41.9386 17.3275Z" fill="#F9D923"/>
<path d="M32.4528 35.3444C32.4528 36.4105 28.5436 35.6957 27.3998 35.6957C26.2559 35.6957 23.5227 36.5749 23.5227 35.3444C23.5227 32.0001 26.9976 32 27.8 32C30.0082 32 32.4528 32.5574 32.4528 35.3444Z" fill="#F9D923"/>
<path d="M67.3011 41.4261C65.1136 41.4261 63.2244 40.9716 61.6335 40.0625C60.0521 39.1439 58.8352 37.8466 57.983 36.1705C57.1307 34.4848 56.7045 32.5009 56.7045 30.2188C56.7045 27.9744 57.1307 26.0047 57.983 24.3097C58.8447 22.6051 60.0473 21.2794 61.5909 20.3324C63.1345 19.3759 64.9479 18.8977 67.0312 18.8977C68.3759 18.8977 69.6449 19.1155 70.8381 19.5511C72.0407 19.9773 73.1013 20.6402 74.0199 21.5398C74.9479 22.4394 75.6771 23.5852 76.2074 24.9773C76.7377 26.3598 77.0028 28.0076 77.0028 29.9205V31.4972H59.1193V28.0312H72.0739C72.0644 27.0464 71.8513 26.1705 71.4347 25.4034C71.018 24.6269 70.4356 24.0161 69.6875 23.571C68.9489 23.1259 68.0871 22.9034 67.1023 22.9034C66.0511 22.9034 65.1278 23.1591 64.3324 23.6705C63.5369 24.1723 62.9167 24.8352 62.4716 25.6591C62.036 26.4735 61.8134 27.3684 61.804 28.3438V31.3693C61.804 32.6383 62.036 33.7273 62.5 34.6364C62.964 35.536 63.6127 36.2273 64.446 36.7102C65.2794 37.1837 66.2547 37.4205 67.3722 37.4205C68.1203 37.4205 68.7973 37.3163 69.4034 37.108C70.0095 36.8902 70.535 36.5729 70.9801 36.1562C71.4252 35.7396 71.7614 35.2235 71.9886 34.608L76.7898 35.1477C76.4867 36.4167 75.9091 37.5246 75.0568 38.4716C74.214 39.4091 73.1345 40.1383 71.8182 40.6591C70.5019 41.1705 68.9962 41.4261 67.3011 41.4261ZM87.295 28.2159V41H82.153V19.1818H87.0678V22.8892H87.3234C87.8253 21.6676 88.6255 20.697 89.724 19.9773C90.832 19.2576 92.2003 18.8977 93.8291 18.8977C95.3348 18.8977 96.6464 19.2197 97.7638 19.8636C98.8907 20.5076 99.7619 21.4403 100.377 22.6619C101.002 23.8835 101.31 25.3655 101.301 27.108V41H96.1587V27.9034C96.1587 26.4451 95.7799 25.304 95.0223 24.4801C94.2742 23.6562 93.2373 23.2443 91.9115 23.2443C91.0119 23.2443 90.2117 23.4432 89.5109 23.8409C88.8196 24.2292 88.2751 24.7926 87.8774 25.5312C87.4892 26.2699 87.295 27.1648 87.295 28.2159ZM118.223 19.1818V23.1591H105.68V19.1818H118.223ZM108.777 13.9545H113.919V34.4375C113.919 35.1288 114.023 35.6591 114.231 36.0284C114.449 36.3883 114.733 36.6345 115.084 36.767C115.434 36.8996 115.822 36.9659 116.248 36.9659C116.57 36.9659 116.864 36.9422 117.129 36.8949C117.404 36.8475 117.612 36.8049 117.754 36.767L118.621 40.7869C118.346 40.8816 117.953 40.9858 117.442 41.0994C116.94 41.2131 116.324 41.2794 115.595 41.2983C114.307 41.3362 113.147 41.142 112.115 40.7159C111.083 40.2803 110.264 39.608 109.658 38.6989C109.061 37.7898 108.767 36.6534 108.777 35.2898V13.9545ZM129.602 41.4403C128.219 41.4403 126.974 41.1941 125.866 40.7017C124.767 40.1998 123.896 39.4612 123.252 38.4858C122.618 37.5104 122.301 36.3078 122.301 34.8778C122.301 33.6468 122.528 32.6288 122.982 31.8239C123.437 31.0189 124.057 30.375 124.843 29.892C125.629 29.4091 126.515 29.0445 127.499 28.7983C128.494 28.5426 129.521 28.358 130.582 28.2443C131.86 28.1117 132.897 27.9934 133.693 27.8892C134.488 27.7756 135.066 27.6051 135.426 27.3778C135.795 27.1411 135.98 26.7765 135.98 26.2841V26.1989C135.98 25.1288 135.662 24.3002 135.028 23.7131C134.393 23.1259 133.48 22.8324 132.286 22.8324C131.027 22.8324 130.028 23.107 129.289 23.6562C128.56 24.2055 128.068 24.8542 127.812 25.6023L123.011 24.9205C123.39 23.5947 124.015 22.4867 124.886 21.5966C125.757 20.697 126.822 20.0246 128.082 19.5795C129.341 19.125 130.733 18.8977 132.258 18.8977C133.309 18.8977 134.355 19.0208 135.397 19.267C136.439 19.5133 137.391 19.9205 138.252 20.4886C139.114 21.0473 139.805 21.8097 140.326 22.7756C140.856 23.7415 141.122 24.9489 141.122 26.3977V41H136.178V38.0028H136.008C135.695 38.6089 135.255 39.1771 134.687 39.7074C134.128 40.2282 133.423 40.6496 132.57 40.9716C131.728 41.2841 130.738 41.4403 129.602 41.4403ZM130.937 37.6619C131.969 37.6619 132.864 37.4583 133.622 37.0511C134.379 36.6345 134.962 36.0852 135.369 35.4034C135.785 34.7216 135.994 33.9782 135.994 33.1733V30.6023C135.833 30.7348 135.558 30.858 135.17 30.9716C134.791 31.0852 134.365 31.1847 133.891 31.2699C133.418 31.3551 132.949 31.4309 132.485 31.4972C132.021 31.5634 131.619 31.6203 131.278 31.6676C130.511 31.7718 129.824 31.9422 129.218 32.179C128.612 32.4157 128.134 32.7472 127.784 33.1733C127.433 33.59 127.258 34.1297 127.258 34.7926C127.258 35.7396 127.604 36.4545 128.295 36.9375C128.986 37.4205 129.867 37.6619 130.937 37.6619Z" fill="#4643D2"/>
</svg>
