<svg width="33" height="40" viewBox="0 0 33 40" fill="none" xmlns="http://www.w3.org/2000/svg">
<path d="M3.69395 32.8612H5.90925C6.70996 32.8612 7.31495 33.0569 7.7242 33.4484C8.21352 33.911 8.45818 34.7384 8.45818 35.9306C8.45818 36.9093 8.2758 37.6655 7.91103 38.1993C7.55516 38.7331 6.8879 39 5.90925 39H3.69395V32.8612ZM5.20196 38.4528H5.66904C6.00712 38.4528 6.26957 38.3327 6.45641 38.0925C6.65214 37.8434 6.78114 37.5498 6.84342 37.2117C6.90569 36.8648 6.93683 36.4377 6.93683 35.9306C6.93683 35.4235 6.90569 35.0009 6.84342 34.6628C6.78114 34.3158 6.65214 34.0222 6.45641 33.782C6.26957 33.5329 6.00712 33.4084 5.66904 33.4084H5.20196V38.4528ZM13.3847 38.2794V39H9.56797V32.8612H13.2246V33.5819H11.076V35.5169H12.9843V36.2375H11.076V38.2794H13.3847ZM19.3026 32.8612V39H17.7278L15.1522 34.4359V39H14.2581V32.8612H15.8328L18.4084 37.4253V32.8612H19.3026ZM24.5696 32.8612V33.5819H22.9949V39H21.5002V33.5819H19.8988V32.8612H24.5696ZM28.0912 37.3052H25.8892L25.3821 39H24.5413L26.4097 32.8612H28.1579L30.0529 39H28.5983L28.0912 37.3052ZM27.8776 36.5845L26.9969 33.6085L26.1027 36.5845H27.8776Z" fill="#F9D923"/>
<path d="M16.8711 3.8899L16.8711 3.8899C15.7002 4.44378 14.2996 4.44365 13.1288 3.8899C7.64433 1.29581 0.999985 4.93218 0.999985 10.6528C0.999985 12.4221 1.79526 16.8954 3.20203 20.9216C3.90612 22.9368 4.76972 24.859 5.77582 26.2824C6.77425 27.6949 7.95843 28.6786 9.3155 28.6786C10.2646 28.6786 11.1492 28.2344 11.9774 27.3874C12.8026 26.5435 13.5858 25.2867 14.344 23.6223C14.4581 23.3718 14.7168 23.233 15 23.233C15.2832 23.233 15.5418 23.3717 15.6559 23.6223L15.656 23.6223C16.4141 25.2867 17.1974 26.5435 18.0225 27.3874C18.8507 28.2344 19.7353 28.6786 20.6845 28.6786C22.0294 28.6786 23.2075 27.7019 24.2035 26.2982C25.2074 24.8836 26.0725 22.9718 26.7797 20.9635C28.1925 16.9509 29 12.4775 29 10.6528C28.9999 4.9341 22.3579 1.29468 16.8711 3.8899ZM17.4372 22.9122L17.4372 22.9121C16.9808 21.9103 15.9787 21.4221 15.0001 21.422C14.0215 21.4219 13.0193 21.9099 12.5627 22.9123L12.7517 22.9984L12.5627 22.9123C11.9741 24.2044 11.3718 25.2075 10.7995 25.8832C10.2167 26.5713 9.70925 26.8684 9.31555 26.8684C9.00664 26.8684 8.66468 26.7157 8.29219 26.3895C7.9212 26.0647 7.54205 25.5867 7.16437 24.9846C6.40956 23.7811 5.68642 22.1238 5.05715 20.3277C3.79668 16.7299 2.93623 12.6446 2.93623 10.6529C2.93623 6.34467 7.99508 3.49099 12.254 5.50524C13.9742 6.31884 16.0258 6.31884 17.7459 5.50524C19.8616 4.50456 22.1954 4.70724 24.0003 5.70735C25.8046 6.70713 27.0636 8.49252 27.0636 10.6529C27.0637 12.6358 26.2038 16.7212 24.9436 20.3212C24.3145 22.1185 23.5914 23.7774 22.8365 24.9822C22.4587 25.5851 22.0795 26.0637 21.7083 26.3889C21.3356 26.7155 20.9935 26.8684 20.6844 26.8684C20.2907 26.8684 19.7832 26.5713 19.2004 25.8832C18.6282 25.2075 18.0258 24.2044 17.4372 22.9122Z" fill="#4643BB" stroke="#4643BB" stroke-width="0.5"/>
<path d="M7.87623 26.9179C9.23817 27.5038 10.6981 27.2969 11.1305 26.4566C11.1965 26.3283 11.0815 26.152 10.8737 26.0626C10.666 25.9732 10.444 26.0046 10.378 26.1329C10.0773 26.7172 9.06225 26.8611 8.11517 26.4536C7.90739 26.3642 7.68544 26.3957 7.61945 26.5239C7.55346 26.6521 7.66845 26.8285 7.87623 26.9179Z" fill="#4643BB"/>
<path d="M8.74532 7.63169C6.52878 7.77511 4.84136 9.59069 5.00438 11.6967C5.03522 12.0952 5.39976 12.3808 5.80063 12.3549C6.20149 12.329 6.51839 11.9992 6.48754 11.6007C6.38613 10.2906 7.43876 9.13574 8.85465 9.04412C9.25552 9.01819 9.57241 8.68842 9.54157 8.28992C9.51072 7.89143 9.14619 7.60575 8.74532 7.63169Z" fill="#4643BB" stroke="#4643BB" stroke-width="0.3"/>
<path d="M24.7909 10.7258L23.5377 10.175L22.8519 9.16767C22.7817 9.06449 22.6465 9 22.5 9C22.3535 9 22.2183 9.06417 22.1481 9.16767L21.4623 10.175L20.2091 10.7258C20.0803 10.7822 20 10.8909 20 11.0085C20 11.1262 20.0799 11.2349 20.2091 11.2913L21.4623 11.8421L22.1481 12.8494C22.2183 12.9529 22.3535 13.0171 22.5 13.0171C22.6465 13.0171 22.7817 12.9526 22.8519 12.8494L23.5377 11.8421L24.7909 11.2913C24.9197 11.2349 25 11.1262 25 11.0085C25 10.8909 24.9197 10.7822 24.7909 10.7258ZM23.0494 11.322C22.9819 11.3516 22.9266 11.3961 22.89 11.45L22.5 12.023L22.1096 11.45C22.0726 11.3961 22.0177 11.3513 21.9502 11.322L21.238 11.0085L21.9502 10.6954C22.0177 10.6658 22.073 10.6213 22.1096 10.5674L22.5 9.99444L22.89 10.5674C22.927 10.6213 22.9819 10.6661 23.0494 10.6954L23.762 11.0085L23.0494 11.322Z" fill="#F9D923"/>
<path d="M32.3955 6.55338L31.7689 6.24L31.426 5.66683C31.3909 5.60812 31.3232 5.57143 31.25 5.57143C31.1768 5.57143 31.1091 5.60794 31.074 5.66683L30.7311 6.24L30.1045 6.55338C30.0401 6.58549 30 6.64732 30 6.71428C30 6.78125 30.0399 6.84308 30.1045 6.87519L30.7311 7.18856L31.074 7.76173C31.1091 7.82063 31.1768 7.85714 31.25 7.85714C31.3232 7.85714 31.3909 7.82045 31.426 7.76173L31.7689 7.18856L32.3955 6.87519C32.4599 6.84308 32.5 6.78125 32.5 6.71428C32.5 6.64732 32.4599 6.58549 32.3955 6.55338ZM31.5247 6.89262C31.491 6.9095 31.4633 6.93482 31.445 6.96546L31.25 7.29149L31.0548 6.96546C31.0363 6.93482 31.0088 6.90932 30.9751 6.89262L30.619 6.71428L30.9751 6.53613C31.0088 6.51925 31.0365 6.49393 31.0548 6.46329L31.25 6.13726L31.445 6.46329C31.4635 6.49393 31.491 6.51944 31.5247 6.53613L31.881 6.71428L31.5247 6.89262Z" fill="#F9D923"/>
<path d="M26.3955 0.981951L25.7689 0.668578L25.426 0.0954064C25.3909 0.0366948 25.3232 0 25.25 0C25.1768 0 25.1091 0.0365113 25.074 0.0954064L24.7311 0.668578L24.1045 0.981951C24.0401 1.01406 24 1.07589 24 1.14286C24 1.20983 24.0399 1.27166 24.1045 1.30376L24.7311 1.61714L25.074 2.19031C25.1091 2.2492 25.1768 2.28571 25.25 2.28571C25.3232 2.28571 25.3909 2.24902 25.426 2.19031L25.7689 1.61714L26.3955 1.30376C26.4599 1.27166 26.5 1.20983 26.5 1.14286C26.5 1.07589 26.4599 1.01406 26.3955 0.981951ZM25.5247 1.32119C25.491 1.33807 25.4633 1.36339 25.445 1.39403L25.25 1.72007L25.0548 1.39403C25.0363 1.36339 25.0088 1.33789 24.9751 1.32119L24.619 1.14286L24.9751 0.964705C25.0088 0.947825 25.0365 0.922505 25.0548 0.891865L25.25 0.565833L25.445 0.891865C25.4635 0.922505 25.491 0.948009 25.5247 0.964705L25.881 1.14286L25.5247 1.32119Z" fill="#F9D923"/>
<path d="M21.25 10.7143L22.5 9.57143L23.125 10.1429L23.75 10.7143V11.2857L22.5 12.4286L21.25 11.2857V10.7143Z" fill="#F9D923"/>
<path d="M24.5 1.11428L25.3125 0.5L25.625 0.885712L25.9375 1.11428V1.34285L25.3125 1.8L24.6875 1.34285L24.5 1.11428Z" fill="#F9D923"/>
<path d="M30.625 6.6L31.25 6.14286L31.5625 6.37143L31.875 6.6V6.82857L31.25 7.28572L30.625 6.82857V6.6Z" fill="#F9D923"/>
</svg>
