<svg width="14" height="16" viewBox="0 0 14 16" fill="none" xmlns="http://www.w3.org/2000/svg">
<path d="M8.384 12.296C7.98933 12.5413 7.54133 12.744 7.04 12.904C6.54933 13.064 5.97333 13.144 5.312 13.144C4.39467 13.144 3.61067 12.952 2.96 12.568C2.32 12.1733 1.82933 11.6453 1.488 10.984C1.14667 10.3227 0.976 9.58667 0.976 8.776C0.976 7.88 1.16267 7.096 1.536 6.424C1.92 5.752 2.44267 5.22933 3.104 4.856C3.76533 4.48267 4.51733 4.296 5.36 4.296C5.82933 4.296 6.26667 4.344 6.672 4.44C7.088 4.52533 7.47733 4.632 7.84 4.76C8.01067 4.824 8.096 4.94667 8.096 5.128C8.096 5.23467 8.05867 5.33067 7.984 5.416C7.92 5.49067 7.824 5.528 7.696 5.528C7.664 5.528 7.616 5.51733 7.552 5.496C7.24267 5.37867 6.90667 5.28267 6.544 5.208C6.18133 5.13333 5.78667 5.096 5.36 5.096C4.66667 5.096 4.048 5.25067 3.504 5.56C2.97067 5.86933 2.54933 6.30133 2.24 6.856C1.93067 7.4 1.776 8.04 1.776 8.776C1.776 9.43733 1.91467 10.04 2.192 10.584C2.46933 11.1173 2.86933 11.544 3.392 11.864C3.92533 12.184 4.56533 12.344 5.312 12.344C5.83467 12.344 6.29333 12.2907 6.688 12.184C7.09333 12.0667 7.46133 11.9173 7.792 11.736V9.416H5.568C5.46133 9.416 5.36533 9.37867 5.28 9.304C5.20533 9.21867 5.168 9.12267 5.168 9.016C5.168 8.89867 5.20533 8.80267 5.28 8.728C5.36533 8.65333 5.46133 8.616 5.568 8.616H8.016C8.21867 8.616 8.36267 8.648 8.448 8.712C8.544 8.76533 8.592 8.86667 8.592 9.016V11.896C8.592 12.0773 8.52267 12.2107 8.384 12.296Z" fill="#6495ED"/>
<path d="M5.2032 8.60155C5.20601 9.48688 5.45884 10.1688 5.96169 10.6472C6.47521 11.1255 7.13197 11.3634 7.93197 11.3609C8.8173 11.3581 9.4992 11.1159 9.97767 10.6344C10.4668 10.1422 10.7099 9.44275 10.707 8.53609L10.6921 3.84811C10.6918 3.73078 10.7288 3.63466 10.8032 3.55976C10.8883 3.48482 10.9842 3.44719 11.0909 3.44685C11.2082 3.44647 11.3043 3.4835 11.3792 3.55793C11.4541 3.63236 11.4918 3.72824 11.4921 3.84558L11.507 8.53355C11.5107 9.69621 11.1989 10.5932 10.5715 11.2245C9.95485 11.8452 9.07583 12.1573 7.93451 12.1609C6.89985 12.1642 6.05087 11.8575 5.38757 11.241C4.73495 10.6244 4.40682 9.74542 4.4032 8.60409L4.38818 3.86812C4.3878 3.75078 4.42483 3.65467 4.49926 3.57976C4.58436 3.50482 4.68024 3.46719 4.78691 3.46685C4.90424 3.46648 5.00036 3.50351 5.07526 3.57793C5.15016 3.65236 5.1878 3.74824 5.18817 3.86558L5.2032 8.60155Z" fill="#6495ED"/>
</svg>
