<svg width="18" height="18" viewBox="0 0 18 18" fill="none" xmlns="http://www.w3.org/2000/svg">
<path d="M11.9403 6.27273H14.0455V11.902C14.0455 12.5526 13.8906 13.1193 13.581 13.6023C13.2713 14.0824 12.8395 14.4545 12.2855 14.7188C11.7315 14.9801 11.0881 15.1108 10.3551 15.1108C9.61364 15.1108 8.96591 14.9801 8.41193 14.7188C7.85795 14.4545 7.42756 14.0824 7.12074 13.6023C6.81392 13.1193 6.66051 12.5526 6.66051 11.902V6.27273H8.76989V11.7188C8.76989 12.0199 8.83523 12.2884 8.96591 12.5241C9.09943 12.7599 9.28551 12.9446 9.52415 13.0781C9.76278 13.2116 10.0398 13.2784 10.3551 13.2784C10.6705 13.2784 10.946 13.2116 11.1818 13.0781C11.4205 12.9446 11.6065 12.7599 11.7401 12.5241C11.8736 12.2884 11.9403 12.0199 11.9403 11.7188V6.27273Z" fill="#FF9D26"/>
<path d="M6.38778 6.12358C6.33949 5.9446 6.26847 5.78693 6.17472 5.65057C6.08097 5.51136 5.96591 5.39347 5.82955 5.29688C5.69318 5.20028 5.53693 5.12784 5.3608 5.07955C5.18466 5.02841 4.99148 5.00284 4.78125 5.00284C4.35795 5.00284 3.99148 5.10511 3.68182 5.30966C3.375 5.5142 3.13778 5.8125 2.97017 6.20455C2.80256 6.59375 2.71875 7.06676 2.71875 7.62358C2.71875 8.18324 2.79972 8.66051 2.96165 9.0554C3.12358 9.45028 3.35795 9.75142 3.66477 9.95881C3.97159 10.1662 4.34375 10.2699 4.78125 10.2699C5.16761 10.2699 5.49432 10.2074 5.76136 10.0824C6.03125 9.95455 6.2358 9.77415 6.375 9.54119C6.5142 9.30824 6.58381 9.03409 6.58381 8.71875L6.97585 8.76562H4.85369V7.22727H8.61648V8.3821C8.61648 9.16335 8.45028 9.83239 8.1179 10.3892C7.78835 10.946 7.33381 11.3736 6.75426 11.6719C6.17756 11.9702 5.5142 12.1193 4.7642 12.1193C3.93182 12.1193 3.20028 11.9389 2.5696 11.5781C1.93892 11.2173 1.44744 10.7031 1.09517 10.0355C0.742898 9.36506 0.566761 8.5696 0.566761 7.64915C0.566761 6.93324 0.673295 6.2983 0.886364 5.74432C1.09943 5.1875 1.39631 4.71591 1.77699 4.32955C2.16051 3.94318 2.60369 3.65057 3.10653 3.4517C3.61222 3.25284 4.15625 3.15341 4.73864 3.15341C5.24432 3.15341 5.71449 3.22585 6.14915 3.37074C6.58665 3.51562 6.97301 3.72017 7.30824 3.98438C7.64631 4.24858 7.92045 4.5625 8.13068 4.92614C8.34091 5.28977 8.47159 5.68892 8.52273 6.12358H6.38778Z" fill="#6495ED"/>
</svg>
