<svg width="16" height="15" viewBox="0 0 16 15" fill="none" xmlns="http://www.w3.org/2000/svg">
<path d="M14.4297 9.03711C14.3164 9.61523 14.043 10.0977 13.6094 10.4844C13.1328 10.9062 12.4727 11.1172 11.6289 11.1172C10.125 11.1172 9.13281 10.7324 8.65234 9.96289C8.38281 9.53711 8.24805 8.98633 8.24805 8.31055C8.24805 7.86523 8.33789 7.08789 8.51758 5.97852C8.69727 4.86914 8.78711 4.01367 8.78711 3.41211C8.78711 3.35742 8.84961 3.2793 8.97461 3.17773C9.09961 3.07617 9.20703 3.02539 9.29688 3.02539H12.0918C11.4824 5.86133 11.1777 7.77148 11.1777 8.75586C11.1777 9.69727 11.6406 10.168 12.5664 10.168C12.9258 10.168 13.2754 10.0645 13.6152 9.85742C13.9551 9.64648 14.2266 9.37305 14.4297 9.03711ZM14.0312 8.71484C14.0312 7.54297 13.9668 6.54492 13.8379 5.7207C13.7129 4.89258 13.4805 4.12305 13.1406 3.41211C13.1406 3.35742 13.2031 3.2793 13.3281 3.17773C13.4531 3.07617 13.5605 3.02539 13.6504 3.02539H15.6309C15.1738 5.0957 14.8105 6.86133 14.541 8.32227C14.5293 8.38086 14.4629 8.46094 14.3418 8.5625C14.2246 8.66406 14.1211 8.71484 14.0312 8.71484Z" fill="#FF8C00"/>
<path d="M4.875 7.93555C4.88672 7.83789 4.92188 7.72656 4.98047 7.60156C5.04297 7.47266 5.11133 7.40625 5.18555 7.40234C6.04492 7.35938 7.05664 7.33789 8.2207 7.33789C8.10742 8.50195 7.95117 9.5 7.75195 10.332C7.70508 10.3945 7.60742 10.4844 7.45898 10.6016C7.31055 10.7148 7.20508 10.7871 7.14258 10.8184C6.91992 10.8848 6.58008 10.9512 6.12305 11.0176C5.66602 11.084 5.21875 11.1172 4.78125 11.1172C5.07812 10.957 5.38672 10.6309 5.70703 10.1387C6.03125 9.64258 6.19336 9.25977 6.19336 8.99023C6.19336 8.7168 6.05078 8.47266 5.76562 8.25781C5.48047 8.04297 5.18359 7.93555 4.875 7.93555ZM7.40039 6.57617C7.25195 5.84961 7.08008 5.24609 6.88477 4.76562C6.68945 4.28125 6.4082 3.83008 6.04102 3.41211C6.04883 3.3418 6.11523 3.25977 6.24023 3.16602C6.36523 3.07227 6.4707 3.02539 6.55664 3.02539C7.24023 3.09961 7.875 3.24023 8.46094 3.44727C8.45312 3.66992 8.40234 4.08984 8.30859 4.70703C8.21875 5.32422 8.13086 5.81641 8.04492 6.18359C8.0293 6.24609 7.94141 6.32812 7.78125 6.42969C7.625 6.52734 7.49805 6.57617 7.40039 6.57617ZM4.41797 10.7188C4.41797 10.7773 4.35547 10.8594 4.23047 10.9648C4.10938 11.0664 4 11.1172 3.90234 11.1172C3.0625 10.9648 2.34961 10.582 1.76367 9.96875C1.47852 9.66797 1.25195 9.30859 1.08398 8.89062C0.919922 8.46875 0.837891 8.02148 0.837891 7.54883C0.837891 7.07227 0.896484 6.61328 1.01367 6.17188C1.13086 5.72656 1.31445 5.30469 1.56445 4.90625C1.81836 4.50391 2.12305 4.15234 2.47852 3.85156C2.83789 3.55078 3.27344 3.3125 3.78516 3.13672C4.30078 2.96094 4.86328 2.87305 5.47266 2.87305C5.5625 2.87305 5.63477 2.875 5.68945 2.87891C5.11914 3.37109 4.67383 4.08203 4.35352 5.01172C4.0332 5.9375 3.87305 6.9375 3.87305 8.01172C3.87305 9.08203 4.05469 9.98438 4.41797 10.7188Z" fill="#6495ED"/>
</svg>
