<svg width="20" height="11" viewBox="0 0 20 11" fill="none" xmlns="http://www.w3.org/2000/svg">
<path d="M0 1.5C0 0.671573 0.671573 0 1.5 0V0C2.32843 0 3 0.671573 3 1.5V11H2C0.895431 11 0 10.1046 0 9V1.5Z" fill="#6495ED"/>
<path d="M17 5H18C19.1046 5 20 5.89543 20 7V9C20 10.1046 19.1046 11 18 11H17V5Z" fill="#FF8C00"/>
<path d="M15 7C15 5.89543 15.8954 5 17 5H18V7H15V7Z" fill="#FF8C00"/>
<rect x="13" width="4" height="3" fill="#FF8C00"/>
<path d="M17 0H18C19.1046 0 20 0.895431 20 2V2H17V0Z" fill="#FF8C00"/>
<path d="M10 2C10 0.895431 10.8954 0 12 0H13V11H12C10.8954 11 10 10.1046 10 9V2Z" fill="#FF8C00"/>
<path d="M7 6H10V9H7V6Z" fill="#6495ED"/>
<path d="M7 1.5C7 0.671573 7.67157 0 8.5 0V0C9.32843 0 10 0.671573 10 1.5V6H7V1.5Z" fill="#6495ED"/>
<path d="M7 6H10V9H7V6Z" fill="#6495ED"/>
<rect x="13" y="8" width="5" height="3" fill="#FF8C00"/>
<path d="M17 2H20V2C20 3.10457 19.1046 4 18 4H17V2Z" fill="#FF8C00"/>
<path d="M2 8H10V9C10 10.1046 9.10457 11 8 11H2V8Z" fill="#6495ED"/>
</svg>
