<svg width="14" height="12" viewBox="0 0 14 12" fill="none" xmlns="http://www.w3.org/2000/svg">
<path d="M0 2C0 0.895431 0.895431 0 2 0H3V12H2C0.895431 12 0 11.1046 0 10V2Z" fill="#6495ED"/>
<path d="M11 5H12C13.1046 5 14 5.89543 14 7V10C14 11.1046 13.1046 12 12 12H11V5Z" fill="#FF8C00"/>
<path d="M11 1H12C13.1046 1 14 1.89543 14 3V4H11V1Z" fill="#FF8C00"/>
<path d="M4 3C4 1.89543 4.89543 1 6 1H7V11H6C4.89543 11 4 10.1046 4 9V3Z" fill="#FF8C00"/>
<path d="M7 0H8C9.10457 0 10 0.895431 10 2V10H7V0Z" fill="#6495ED"/>
<rect x="4" y="9" width="7" height="3" fill="#FF8C00"/>
<path d="M3 9H10V10C10 11.1046 9.10457 12 8 12H3V9Z" fill="#6495ED"/>
<path d="M3 0V0C3.55228 0 4 0.447715 4 1V2H3V0Z" fill="#6495ED"/>
<path d="M8 7C8 5.89543 8.89543 5 10 5H11V8H8V7Z" fill="#FF8C00"/>
<rect x="6" y="1" width="5" height="3" fill="#FF8C00"/>
</svg>
