<svg width="48" height="30" viewBox="0 0 48 30" fill="none" xmlns="http://www.w3.org/2000/svg">
<path d="M0.00012207 5.40793C0.00012207 2.68729 2.20564 0.481768 4.92629 0.481768H43.0737C45.7943 0.481768 47.9998 2.68729 47.9998 5.40793V24.5921C47.9998 27.3127 45.7943 29.5182 43.0737 29.5182H4.92628C2.20564 29.5182 0.00012207 27.3127 0.00012207 24.5921V5.40793Z" fill="#BBBBBB"/>
<path fill-rule="evenodd" clip-rule="evenodd" d="M7.93339 5.86967C8.61355 5.86967 9.16493 6.42105 9.16493 7.10122L9.16493 22.8987C9.16493 23.5789 8.61355 24.1303 7.93339 24.1303C7.25323 24.1303 6.70185 23.5789 6.70185 22.8987L6.70185 7.10122C6.70185 6.42105 7.25323 5.86967 7.93339 5.86967Z" fill="#FF0000"/>
<path fill-rule="evenodd" clip-rule="evenodd" d="M15.9666 5.8697C16.6468 5.8697 17.1982 6.42108 17.1982 7.10124L17.1982 22.8987C17.1982 23.5789 16.6468 24.1303 15.9666 24.1303C15.2865 24.1303 14.7351 23.5789 14.7351 22.8987L14.7351 7.10124C14.7351 6.42108 15.2865 5.8697 15.9666 5.8697Z" fill="#FF0000"/>
<path fill-rule="evenodd" clip-rule="evenodd" d="M23.9999 5.8697C24.6801 5.8697 25.2315 6.42108 25.2315 7.10124L25.2315 22.8987C25.2315 23.5789 24.6801 24.1303 23.9999 24.1303C23.3198 24.1303 22.7684 23.5789 22.7684 22.8987L22.7684 7.10124C22.7684 6.42108 23.3198 5.8697 23.9999 5.8697Z" fill="#FF0000"/>
<path fill-rule="evenodd" clip-rule="evenodd" d="M32.0332 5.8697C32.7134 5.8697 33.2647 6.42108 33.2647 7.10124L33.2647 22.8987C33.2647 23.5789 32.7134 24.1303 32.0332 24.1303C31.353 24.1303 30.8017 23.5789 30.8017 22.8987L30.8017 7.10124C30.8017 6.42108 31.353 5.8697 32.0332 5.8697Z" fill="#FF0000"/>
<path fill-rule="evenodd" clip-rule="evenodd" d="M40.0665 5.8697C40.7466 5.8697 41.298 6.42108 41.298 7.10124L41.298 22.8987C41.298 23.5789 40.7466 24.1303 40.0665 24.1303C39.3863 24.1303 38.8349 23.5789 38.8349 22.8987L38.8349 7.10124C38.8349 6.42108 39.3863 5.8697 40.0665 5.8697Z" fill="#FF0000"/>
</svg>
