<svg width="48" height="50" viewBox="0 0 48 50" fill="none" xmlns="http://www.w3.org/2000/svg">
<path d="M16.3665 0.903427C19.7214 0.962127 23.5413 1.54912 26.976 3.59005C28.0511 4.22919 29.0209 5.03087 29.8508 5.96662C31.8932 8.29051 31.7577 11.1382 29.6385 13.4154C27.9423 15.2336 25.787 16.2857 23.4495 16.9449C17.4592 18.6351 11.5035 18.5132 5.71932 16.0599C4.3685 15.4693 3.12417 14.6603 2.03631 13.6653C-0.602149 11.2736 -0.615695 8.08281 1.87376 5.52713C3.78826 3.56446 6.21902 2.52443 8.8063 1.80649C11.0881 1.16833 13.424 0.903427 16.3665 0.903427Z" fill="#CCCCCC"/>
<path d="M19.6461 20.661C18.0916 22.2782 16.8229 24.1475 15.8939 26.1893C15.8381 26.276 15.7627 26.3484 15.6738 26.4007C15.5849 26.453 15.485 26.4837 15.3821 26.4903C11.0655 26.3865 6.91438 25.6535 3.24041 23.1791C0.645594 21.4301 -0.387915 19.0119 0.139877 15.9244C5.84575 20.4955 12.5134 21.2119 19.6461 20.661Z" fill="#9FCB42"/>
<path d="M0.158081 32.8118C4.00514 36.0884 8.5867 37.2985 13.4768 37.6627C13.5267 37.669 13.577 37.6716 13.6273 37.6703C14.5214 37.583 14.9323 37.9397 15.2107 38.8563C15.6201 40.2109 16.3079 41.4752 16.8814 42.7786C16.9596 42.9562 17.0514 43.1263 17.1688 43.3641C14.0683 43.4047 11.4299 43.3445 8.70862 42.5092C7.0108 41.9991 5.37204 41.3099 3.82002 40.4532C0.892575 38.8081 -0.492127 36.2826 0.158081 32.8118Z" fill="#9FCB42"/>
<path d="M0.150515 24.332C4.39041 27.9442 9.44909 28.9978 14.729 29.2988C14.5785 31.1546 14.428 32.9638 14.2594 34.9144C13.4723 34.8301 12.5903 34.7639 11.7143 34.639C9.09389 34.2717 6.57433 33.5749 4.25796 32.2579C3.84556 32.0231 3.45273 31.7507 3.0614 31.4813C0.544854 29.7489 -0.356707 27.3512 0.150515 24.332Z" fill="#CCCCCC"/>
<path d="M47.9999 33.6241C47.9759 42.161 41.0057 49.1026 32.4597 49.0966C29.3917 49.0906 26.3945 48.175 23.847 46.4654C21.2995 44.7558 19.3163 42.3292 18.1481 39.4924C16.9799 36.6555 16.6792 33.536 17.2841 30.5283C17.889 27.5206 19.3723 24.7598 21.5464 22.5952C23.7205 20.4306 26.4877 18.9593 29.4981 18.3676C32.5084 17.7758 35.6266 18.0901 38.4583 19.2706C41.29 20.4512 43.708 22.4451 45.4064 25C47.1048 27.5549 48.0074 30.5561 47.9999 33.6241V33.6241Z" fill="#9FCB42"/>
<path d="M33.4726 24.9454V27.6734H32.131V24.9454H33.4726ZM33.3116 39.5513V41.9394H31.9789V39.5513H33.3116ZM35.1005 36.7249C35.1005 36.3671 35.02 36.0452 34.859 35.7589C34.698 35.4727 34.4326 35.2104 34.0629 34.9719C33.6932 34.7333 33.1983 34.5127 32.5782 34.31C31.8269 34.0774 31.1769 33.7942 30.6284 33.4603C30.0858 33.1264 29.6654 32.712 29.3672 32.217C29.0751 31.7221 28.929 31.1229 28.929 30.4193C28.929 29.6858 29.087 29.0538 29.403 28.5231C29.719 27.9924 30.1663 27.5839 30.7446 27.2977C31.323 27.0115 32.0028 26.8684 32.7839 26.8684C33.3921 26.8684 33.9347 26.9608 34.4118 27.1457C34.8888 27.3246 35.2913 27.5929 35.6192 27.9507C35.9531 28.3084 36.2066 28.7467 36.3795 29.2655C36.5584 29.7842 36.6478 30.3835 36.6478 31.0632H35.0021C35.0021 30.6637 34.9544 30.297 34.859 29.9631C34.7636 29.6292 34.6205 29.34 34.4297 29.0955C34.2388 28.8451 34.0063 28.6543 33.732 28.5231C33.4577 28.3859 33.1417 28.3174 32.7839 28.3174C32.283 28.3174 31.8686 28.4038 31.5407 28.5768C31.2187 28.7497 30.9802 28.9942 30.8251 29.3102C30.6701 29.6202 30.5926 29.981 30.5926 30.3924C30.5926 30.774 30.6701 31.108 30.8251 31.3942C30.9802 31.6804 31.2425 31.9398 31.6122 32.1723C31.9879 32.3989 32.5037 32.6225 33.1596 32.8431C33.9288 33.0876 34.5817 33.3768 35.1184 33.7107C35.655 34.0387 36.0635 34.4441 36.3437 34.9271C36.624 35.4042 36.7641 35.9975 36.7641 36.707C36.7641 37.4762 36.5912 38.1262 36.2453 38.6569C35.8995 39.1816 35.4135 39.5811 34.7874 39.8554C34.1613 40.1297 33.4279 40.2668 32.5871 40.2668C32.0803 40.2668 31.5794 40.1982 31.0845 40.0611C30.5896 39.924 30.1424 39.7004 29.7429 39.3903C29.3434 39.0743 29.0244 38.6598 28.7859 38.147C28.5474 37.6283 28.4281 36.9932 28.4281 36.2419H30.0917C30.0917 36.7488 30.1633 37.1691 30.3064 37.5031C30.4554 37.831 30.6522 38.0934 30.8967 38.2902C31.1412 38.481 31.4095 38.6181 31.7017 38.7016C31.9998 38.7791 32.295 38.8179 32.5871 38.8179C33.1238 38.8179 33.577 38.7344 33.9467 38.5674C34.3223 38.3945 34.6085 38.15 34.8053 37.834C35.0021 37.518 35.1005 37.1483 35.1005 36.7249Z" fill="white"/>
</svg>
