<svg width="48" height="48" viewBox="0 0 48 48" fill="none" xmlns="http://www.w3.org/2000/svg">
<path d="M26.5359 19.3189C26.5126 19.4543 26.4777 19.7408 26.4115 20.0286C25.8384 22.4993 27.3977 24.7615 29.9007 25.0828C31.217 25.2516 31.7246 25.8285 32.0144 27.4299C32.2786 28.8459 32.3445 30.2918 32.2102 31.7261C32.1061 32.7776 31.5801 33.4202 30.5655 33.6714C28.0229 34.3008 26.719 36.8814 27.7392 39.2622C28.2454 40.4488 28.1429 41.1714 27.1306 41.9704C26.0452 42.8259 24.9106 43.6171 23.7327 44.3401C22.6889 44.9817 21.9306 44.8077 21.0855 43.9315C19.197 41.9725 16.1887 42.2495 14.6789 44.5198C14.0409 45.4808 13.3177 45.7478 12.2257 45.4234C10.6784 44.9625 9.21435 44.2584 7.88841 43.3374C6.96391 42.6988 6.72008 41.978 7.05148 40.9095C7.88833 38.2104 6.11094 35.6565 3.29994 35.5294C2.25792 35.4831 1.58382 34.7872 1.34924 33.5198C1.06171 32.0193 0.991014 30.4853 1.13932 28.9648C1.2566 27.8246 1.75994 27.2411 2.87124 26.9993C5.4131 26.4441 6.78282 23.822 5.79004 21.4037C5.29761 20.2057 5.45634 19.5362 6.42216 18.6885C7.51629 17.7255 8.74295 16.9245 10.0646 16.31C11.018 15.8682 11.7301 15.9966 12.4786 16.7246C14.4112 18.6186 17.1685 18.4042 18.8087 16.2306C19.4033 15.443 20.1049 15.1944 21.0476 15.4621C22.7182 15.9433 24.2936 16.7082 25.7048 17.7235C26.1851 18.0749 26.4741 18.548 26.5359 19.3189ZM16.3149 25.2641C15.2874 25.3363 14.3046 25.7118 13.4907 26.3429C12.6768 26.974 12.0684 27.8325 11.7427 28.8096C11.4169 29.7866 11.3884 30.8384 11.6607 31.8317C11.933 32.825 12.494 33.7151 13.2725 34.3895C14.051 35.0638 15.0121 35.492 16.034 35.6198C17.056 35.7476 18.093 35.5693 19.0136 35.1074C19.9342 34.6456 20.697 33.921 21.2056 33.0254C21.7141 32.1297 21.9455 31.1033 21.8704 30.0761C21.7678 28.7029 21.126 27.426 20.085 26.5244C19.0441 25.6227 17.6887 25.1697 16.3149 25.2641V25.2641Z" fill="#8D8AE6"/>
<path d="M44.347 5.88466C44.3178 5.97615 44.266 6.17121 44.1924 6.36415C43.557 8.01994 44.4186 9.7372 46.1211 10.2013C47.0164 10.4453 47.3123 10.8938 47.3584 12.0308C47.4047 13.037 47.3108 14.0448 47.0794 15.0251C46.9058 15.7434 46.4795 16.1376 45.7526 16.2137C43.9309 16.4042 42.7788 18.0656 43.2556 19.813C43.4916 20.6836 43.3508 21.1741 42.5727 21.6298C41.7383 22.1175 40.8762 22.556 39.9907 22.943C39.2058 23.2866 38.6975 23.0929 38.1967 22.4045C37.0779 20.8655 34.9676 20.767 33.7029 22.1936C33.1683 22.7976 32.6417 22.9127 31.9167 22.5826C30.8896 22.1141 29.9436 21.4852 29.1141 20.7193C28.5355 20.1878 28.4362 19.6651 28.7688 18.9571C29.6089 17.1685 28.6245 15.2282 26.6899 14.8689C25.9727 14.7362 25.573 14.1892 25.5329 13.2888C25.4786 12.2219 25.5776 11.1527 25.8271 10.1139C26.0184 9.33553 26.4233 8.97998 27.2163 8.91985C29.0303 8.78061 30.232 7.09687 29.7778 5.32617C29.5524 4.44895 29.727 4.00063 30.4777 3.50675C31.3284 2.94541 32.2553 2.50904 33.2299 2.211C33.9328 1.99705 34.4136 2.15471 34.8617 2.7311C36.0174 4.22942 37.9478 4.34705 39.2935 2.99999C39.7813 2.5119 40.2912 2.40741 40.9182 2.68382C42.0288 3.17829 43.046 3.86013 43.9254 4.69951C44.2242 4.9892 44.3787 5.34479 44.347 5.88466ZM36.6944 9.01558C35.9759 8.96644 35.259 9.13161 34.6344 9.49017C34.0097 9.84872 33.5056 10.3845 33.1857 11.0298C32.8657 11.675 32.7445 12.4007 32.8372 13.1149C32.93 13.8291 33.2325 14.4998 33.7066 15.0419C34.1807 15.5841 34.805 15.9734 35.5004 16.1605C36.1959 16.3477 36.9313 16.3243 37.6134 16.0933C38.2956 15.8623 38.8938 15.4341 39.3325 14.8629C39.7712 14.2917 40.0305 13.6031 40.0776 12.8845C40.1391 11.9235 39.8178 10.9772 39.1839 10.2523C38.55 9.52742 37.655 9.0828 36.6944 9.01558V9.01558Z" fill="#CCCCCC"/>
<circle cx="36.4423" cy="12.6477" r="5.8322" stroke="#9F9F9F"/>
</svg>
