<svg width="48" height="50" viewBox="0 0 48 50" fill="none" xmlns="http://www.w3.org/2000/svg">
<path d="M48 23.789C48 28.6137 48 33.4383 48 38.2629C48 39.6126 47.5006 40.1224 46.1495 40.1239H1.99151C0.449942 40.1239 6.86646e-05 39.674 6.86646e-05 38.104C6.86646e-05 33.3293 6.86646e-05 28.5547 6.86646e-05 23.78C6.86646e-05 22.3734 0.485931 21.8831 1.88654 21.8831C16.6304 21.8831 31.3762 21.8831 46.124 21.8831C47.5126 21.8831 48 22.3809 48 23.789Z" fill="#46A8C3"/>
<path d="M29.3693 0.997026C29.3693 4.44605 29.3693 7.76761 29.3693 11.0892C29.3693 11.3636 29.3333 11.6575 29.4173 11.9079C29.6542 12.6052 30.167 12.8902 30.9168 12.8872C34.015 12.8692 37.1146 12.8872 40.2142 12.8872H41.078V19.0879H6.86663V18.2556C6.86663 13.5815 6.92061 8.90579 6.84114 4.23311C6.80815 2.36164 8.20425 0.94904 10.1042 0.970034C16.2525 1.04051 22.4007 0.997026 28.549 0.997026H29.3693ZM17.6951 7.1183C16.5749 7.1183 15.4457 7.1093 14.3315 7.1183C13.4318 7.12879 12.8859 7.64465 12.8709 8.45742C12.8544 9.31367 13.4048 9.86552 14.3315 9.87002C16.5239 9.88201 18.7168 9.88201 20.9102 9.87002C21.8099 9.87002 22.3558 9.34517 22.3707 8.5324C22.3872 7.67614 21.8369 7.13029 20.9102 7.1183C19.844 7.1183 18.7718 7.1183 17.6951 7.1183ZM17.6561 13.1166C16.5344 13.1166 15.4067 13.1061 14.291 13.1166C13.4153 13.1286 12.8694 13.6729 12.8709 14.4932C12.8724 15.3135 13.4168 15.8608 14.2955 15.8653C16.5139 15.8793 18.7323 15.8793 20.9507 15.8653C21.8279 15.8653 22.3722 15.309 22.3707 14.4887C22.3692 13.6684 21.8249 13.1286 20.9447 13.1166C19.853 13.1166 18.7568 13.1166 17.6606 13.1166H17.6561Z" fill="#CCCCCC"/>
<path d="M6.86654 42.9146H41.0569C41.0569 44.2792 41.1963 45.6334 41.0179 46.944C40.8424 48.2216 39.5948 49.0014 38.1687 49.0044C34.7437 49.0114 31.3191 49.0114 27.8951 49.0044C21.9703 49.0044 16.0484 48.9639 10.1221 49.0299C8.37361 49.0494 6.67309 47.9472 6.85004 45.7518C6.92652 44.8386 6.86654 43.9118 6.86654 42.9146Z" fill="#CCCCCC"/>
<path d="M32.1599 10.0694V2.30164L39.8888 10.0694H32.1599Z" fill="#9F9F9F"/>
<path d="M15.0647 33.2889C15.079 32.9786 14.9714 32.675 14.7648 32.4431C14.4791 32.1791 14.1393 31.9806 13.7691 31.8613C13.3535 31.7085 12.947 31.5322 12.5514 31.3334C12.2332 31.1741 11.9381 30.9723 11.6742 30.7336C11.4321 30.5079 11.2382 30.2355 11.1043 29.9328C10.9612 29.5865 10.8917 29.2142 10.9004 28.8396C10.8876 28.5077 10.9432 28.1767 11.0637 27.8672C11.1841 27.5576 11.3669 27.2761 11.6007 27.0401C12.1037 26.5566 12.7622 26.2675 13.4587 26.2244V24.8387H14.4949V26.2423C15.1961 26.3146 15.8416 26.6572 16.2944 27.1976C16.7262 27.7274 16.9422 28.4127 16.9422 29.2535H15.0647C15.0647 28.7361 14.9567 28.3538 14.7438 28.0913C14.6402 27.9653 14.5088 27.865 14.3601 27.7982C14.2113 27.7313 14.049 27.6998 13.886 27.7059C13.7358 27.6964 13.5852 27.7181 13.4437 27.7697C13.3023 27.8213 13.1731 27.9017 13.0643 28.0058C12.9615 28.1177 12.8821 28.2489 12.8306 28.3918C12.7791 28.5347 12.7566 28.6864 12.7644 28.8381C12.7511 29.1288 12.8536 29.413 13.0493 29.6284C13.2402 29.8283 13.5931 30.0313 14.108 30.2372C14.5435 30.407 14.9686 30.6023 15.3811 30.8221C15.6893 30.989 15.9725 31.1985 16.2224 31.4444C16.4477 31.6706 16.6261 31.9392 16.7472 32.2347C16.8738 32.5636 16.9355 32.914 16.9287 33.2664C16.942 33.5954 16.8879 33.9236 16.7698 34.231C16.6517 34.5384 16.4721 34.8184 16.2419 35.0539C15.784 35.5117 15.1537 35.7817 14.3509 35.8636V37.1518H13.3297V35.8696C12.4439 35.7757 11.7586 35.4617 11.2738 34.9279C10.7889 34.394 10.546 33.6847 10.545 32.8H12.4165C12.4165 33.3148 12.5384 33.7087 12.7823 33.9817C13.0263 34.2546 13.3762 34.392 13.8321 34.394C14.1592 34.4123 14.481 34.305 14.7318 34.0941C14.8417 33.9916 14.9283 33.8666 14.9858 33.7277C15.0432 33.5887 15.0701 33.4391 15.0647 33.2889V33.2889Z" fill="white"/>
<path d="M25.3249 33.2889C25.3392 32.9786 25.2316 32.675 25.025 32.4431C24.7377 32.1797 24.3963 31.9821 24.0248 31.8643C23.6092 31.7115 23.2027 31.5352 22.8071 31.3364C22.4889 31.1771 22.1938 30.9753 21.9299 30.7366C21.6878 30.5109 21.4939 30.2385 21.36 29.9358C21.2169 29.5895 21.1475 29.2172 21.1561 28.8426C21.1433 28.5107 21.1989 28.1797 21.3194 27.8702C21.4399 27.5606 21.6226 27.2791 21.8564 27.0431C22.3593 26.5594 23.0179 26.2702 23.7144 26.2274V24.8417H24.7506V26.2453C25.4509 26.3225 26.0937 26.6694 26.5426 27.2126C26.9734 27.7424 27.1889 28.4277 27.1889 29.2685H25.3249C25.3249 28.7511 25.2169 28.3687 25.004 28.1063C24.9003 27.9804 24.769 27.8802 24.6202 27.8133C24.4714 27.7465 24.3092 27.7149 24.1462 27.7209C23.9958 27.7115 23.845 27.7333 23.7033 27.7849C23.5616 27.8365 23.4321 27.9169 23.323 28.0208C23.2221 28.1336 23.1445 28.2652 23.0946 28.408C23.0447 28.5508 23.0234 28.7021 23.0321 28.8531C23.0252 28.9971 23.0468 29.141 23.0957 29.2767C23.1446 29.4123 23.2198 29.5369 23.317 29.6434C23.5069 29.8433 23.8598 30.0463 24.3757 30.2522C24.8108 30.4216 25.2355 30.6169 25.6473 30.837C25.9562 31.0036 26.24 31.2131 26.4901 31.4594C26.7154 31.6856 26.8938 31.9542 27.0149 32.2496C27.141 32.5787 27.2021 32.9291 27.1949 33.2814C27.2085 33.6103 27.1547 33.9385 27.0368 34.2459C26.919 34.5533 26.7396 34.8333 26.5096 35.0689C26.0517 35.5267 25.4214 35.7966 24.6186 35.8786V37.1668H23.5884V35.8846C22.7037 35.7906 22.0188 35.4767 21.534 34.9429C21.0491 34.409 20.8062 33.6997 20.8052 32.815H22.6767C22.6767 33.3298 22.7986 33.7237 23.0426 33.9967C23.2865 34.2696 23.6364 34.407 24.0923 34.409C24.4195 34.4277 24.7414 34.3204 24.992 34.1091C25.1039 34.0049 25.1917 33.8775 25.2492 33.7358C25.3067 33.5941 25.3325 33.4416 25.3249 33.2889V33.2889Z" fill="white"/>
<path d="M35.5834 33.2889C35.5979 32.9786 35.4902 32.6749 35.2835 32.4431C34.9962 32.1797 34.6549 31.9821 34.2833 31.8643C33.8678 31.7115 33.4612 31.5352 33.0656 31.3364C32.7474 31.1771 32.4523 30.9753 32.1884 30.7366C31.9458 30.5113 31.7519 30.2388 31.6185 29.9358C31.4746 29.5898 31.4051 29.2173 31.4146 28.8426C31.4019 28.5108 31.4574 28.18 31.5776 27.8705C31.6978 27.561 31.8801 27.2794 32.1134 27.0431C32.6169 26.5594 33.276 26.2703 33.9729 26.2274V24.8417H35.0076V26.2453C35.7092 26.3165 36.3551 26.6593 36.8071 27.2006C37.239 27.7304 37.4549 28.4157 37.4549 29.2565H35.5834C35.5834 28.7391 35.477 28.3568 35.264 28.0943C35.1603 27.9684 35.029 27.8682 34.8802 27.8013C34.7314 27.7345 34.5692 27.7029 34.4063 27.7089C34.2558 27.6995 34.105 27.7213 33.9633 27.7729C33.8216 27.8245 33.6922 27.9049 33.583 28.0088C33.4811 28.1222 33.4028 28.2547 33.3526 28.3986C33.3024 28.5425 33.2813 28.695 33.2906 28.8471C33.2837 28.9911 33.3053 29.1351 33.3542 29.2707C33.4031 29.4063 33.4783 29.5309 33.5755 29.6374C33.7664 29.8373 34.1193 30.0403 34.6342 30.2462C35.0694 30.4156 35.494 30.6109 35.9058 30.8311C36.2148 30.9976 36.4985 31.2071 36.7486 31.4534C36.9739 31.6794 37.1518 31.948 37.272 32.2437C37.3992 32.5724 37.4609 32.9229 37.4534 33.2754C37.467 33.6043 37.4132 33.9325 37.2954 34.2399C37.1775 34.5473 36.9981 34.8273 36.7681 35.0629C36.3092 35.5207 35.6789 35.7906 34.8771 35.8726V37.1608H33.8469V35.8786C32.9622 35.7846 32.2769 35.4707 31.791 34.9369C31.3051 34.403 31.0627 33.6937 31.0637 32.809H32.9352C32.9352 33.3238 33.0566 33.7177 33.2996 33.9907C33.4339 34.1318 33.5975 34.2418 33.7788 34.313C33.9601 34.3843 34.1548 34.415 34.3493 34.403C34.6765 34.4214 34.9983 34.3142 35.249 34.1031C35.3604 33.9997 35.448 33.8733 35.5057 33.7327C35.5634 33.5921 35.59 33.4407 35.5834 33.2889V33.2889Z" fill="white"/>
</svg>
