<svg width="48" height="38" viewBox="0 0 48 38" fill="none" xmlns="http://www.w3.org/2000/svg">
<path d="M4.21054 4.7484C4.21054 2.4602 6.06783 0.605251 8.3589 0.605251H40.483C42.7741 0.605251 44.6314 2.4602 44.6314 4.7484V20.8832C44.6314 23.1714 42.7741 25.0263 40.483 25.0263H8.35889C6.06782 25.0263 4.21054 23.1714 4.21054 20.8832V4.7484Z" fill="#CCCCCC"/>
<path fill-rule="evenodd" clip-rule="evenodd" d="M10.8912 5.13663C11.4639 5.13663 11.9282 5.60037 11.9282 6.17242L11.9282 19.4589C11.9282 20.0309 11.4639 20.4947 10.8912 20.4947C10.3184 20.4947 9.85406 20.0309 9.85406 19.4589L9.85406 6.17242C9.85406 5.60037 10.3184 5.13663 10.8912 5.13663Z" fill="#4BC0C0"/>
<path fill-rule="evenodd" clip-rule="evenodd" d="M17.656 5.13663C18.2287 5.13663 18.693 5.60037 18.693 6.17242L18.693 19.4589C18.693 20.0309 18.2287 20.4947 17.656 20.4947C17.0832 20.4947 16.6189 20.0309 16.6189 19.4589L16.6189 6.17242C16.6189 5.60037 17.0832 5.13663 17.656 5.13663Z" fill="#4BC0C0"/>
<path fill-rule="evenodd" clip-rule="evenodd" d="M24.4207 5.13663C24.9935 5.13663 25.4578 5.60037 25.4578 6.17242L25.4578 19.4589C25.4578 20.0309 24.9935 20.4947 24.4207 20.4947C23.848 20.4947 23.3837 20.0309 23.3837 19.4589L23.3837 6.17242C23.3837 5.60037 23.848 5.13663 24.4207 5.13663Z" fill="#4BC0C0"/>
<path fill-rule="evenodd" clip-rule="evenodd" d="M31.1859 5.13663C31.7587 5.13663 32.223 5.60037 32.223 6.17242L32.223 19.4589C32.223 20.0309 31.7587 20.4947 31.1859 20.4947C30.6132 20.4947 30.1489 20.0309 30.1489 19.4589L30.1489 6.17242C30.1489 5.60037 30.6132 5.13663 31.1859 5.13663Z" fill="#4BC0C0"/>
<path fill-rule="evenodd" clip-rule="evenodd" d="M37.9507 5.13663C38.5235 5.13663 38.9878 5.60037 38.9878 6.17242L38.9878 19.4589C38.9878 20.0309 38.5235 20.4947 37.9507 20.4947C37.378 20.4947 36.9137 20.0309 36.9137 19.4589L36.9137 6.17242C36.9137 5.60037 37.378 5.13663 37.9507 5.13663Z" fill="#4BC0C0"/>
<circle cx="11.2366" cy="32.8947" r="4.5" fill="#4BC0C0"/>
<circle cx="36.4997" cy="32.8947" r="4.5" fill="#4BC0C0"/>
<rect y="25.0263" width="48" height="5.89474" rx="2.94737" fill="#9F9F9F"/>
</svg>
