<svg width="107" height="107" viewBox="0 0 107 107" fill="none" xmlns="http://www.w3.org/2000/svg">
<path opacity="0.64" fill-rule="evenodd" clip-rule="evenodd" d="M62.5075 14.8867C86.1063 14.8867 90.5752 44.8025 90.5752 68.4014C90.5752 82.6935 76.7996 91.8867 62.5075 91.8867C42.1022 91.8867 15.832 88.8066 15.832 68.4014C15.832 40.6702 32.1055 18.5977 62.5075 14.8867Z" stroke="#D7D7AD"/>
<path opacity="0.64" fill-rule="evenodd" clip-rule="evenodd" d="M84.4155 29.0019C102.906 43.6651 87.8191 69.8818 73.1559 88.3722C64.2755 99.5705 47.7696 98.2143 36.5713 89.3338C20.5832 76.655 1.91345 57.9186 14.5923 41.9304C31.8231 20.2022 58.2887 13.0192 84.4155 29.0019Z" stroke="#D7D7AD"/>
<line x1="37" y1="52.5" x2="69" y2="52.5" stroke="#9E9E4D"/>
<line x1="37" y1="59.5" x2="69" y2="59.5" stroke="#9E9E4D"/>
</svg>
