<svg width="594" height="35" viewBox="0 0 594 35" fill="none" xmlns="http://www.w3.org/2000/svg">
<path d="M2.328 10.12V23.032C2.328 23.896 2.088 24.712 1.176 25H5.112C4.2 24.688 3.96 23.92 3.96 23.032V17.968C4.368 17.536 5.28 16.264 5.88 16.264C6.12 16.264 6.36 16.384 6.48 16.576L12.048 24.688C12.192 24.88 12.36 25 12.6 25H15.192C14.52 24.784 13.56 23.944 13.152 23.368L7.416 15.04C7.344 14.92 7.296 14.824 7.296 14.68C7.296 14.536 7.368 14.368 7.464 14.272L11.448 10.024C12.096 9.328 12.912 8.488 13.824 8.2H10.32C10.8 8.344 11.28 8.848 11.28 9.376C11.28 9.664 11.16 9.88 10.968 10.096L3.96 17.584V10.12C3.96 9.256 4.2 8.488 5.112 8.2H1.176C1.944 8.44 2.328 9.376 2.328 10.12ZM26.6434 25L27.3394 22.144C26.4514 23.824 24.8194 24.712 22.9474 24.712H18.8434V16.6H21.6754C22.7074 16.6 23.6194 16.936 23.9554 17.992V14.896C23.6194 15.952 22.7074 16.312 21.6754 16.312H18.8434V8.488H22.9714C24.8914 8.488 26.2834 9.376 27.1714 11.056L26.5234 8.2H16.0594C16.9714 8.488 17.2114 9.256 17.2114 10.12V23.032C17.2114 23.896 16.9714 24.712 16.0594 25H26.6434ZM39.9793 25L40.6753 22.144C39.7873 23.824 38.1553 24.712 36.2833 24.712H32.1793V16.6H35.0113C36.0433 16.6 36.9553 16.936 37.2913 17.992V14.896C36.9553 15.952 36.0433 16.312 35.0113 16.312H32.1793V8.488H36.3073C38.2273 8.488 39.6193 9.376 40.5073 11.056L39.8593 8.2H29.3953C30.3073 8.488 30.5473 9.256 30.5473 10.12V23.032C30.5473 23.896 30.3073 24.712 29.3953 25H39.9793ZM51.8033 25.048C54.3473 25.048 56.7233 23.848 58.4033 22.528L57.8033 22.504C56.4593 23.656 54.1793 24.664 52.1873 24.664C47.7713 24.664 44.7953 21.376 44.7953 17.152C44.7953 12.496 48.3953 8.488 52.9073 8.488C57.4193 8.488 59.2193 12.256 59.2193 15.664C59.2193 18.472 57.9713 21.016 56.0513 21.016C55.0673 21.016 54.7073 20.512 54.7073 19.672C54.7073 18.208 55.7153 15.616 56.5073 12.592H54.8513L54.4673 13.864C54.3233 13.024 53.4353 12.28 52.3553 12.28C49.0193 12.28 47.2193 15.184 47.2193 17.704C47.2193 19.624 48.2993 21.352 50.5553 21.352C51.8033 21.352 52.9073 20.32 53.3393 19.336C53.3393 20.512 54.3233 21.352 55.6193 21.352C58.6673 21.352 60.4673 18.496 60.4673 15.448C60.4673 11.968 58.1153 8.224 52.6913 8.224C47.1473 8.224 43.1633 12.064 43.1633 17.152C43.1633 21.952 47.2913 25.048 51.8033 25.048ZM48.8033 18.184C48.8033 15.808 50.2673 12.712 52.6433 12.712C53.6753 12.712 54.1073 13.672 54.1073 14.944C54.1073 17.368 52.5473 20.968 50.7473 20.968C49.4273 20.968 48.8033 19.72 48.8033 18.184ZM62.7 25H72.852L73.524 22.216C73.044 22.96 72.252 23.512 70.212 23.512H65.052C67.524 20.944 73.188 15.832 73.188 12.208C73.188 9.712 71.652 8.176 69.228 8.176C66.9 8.176 64.98 9.976 63.924 12.088L64.116 12.16C65.172 10.024 66.852 9.136 68.244 9.136C70.308 9.136 71.412 10.24 71.412 12.256C71.412 13.792 71.004 15.688 68.484 18.952C67.716 19.936 63.78 24.52 62.7 25ZM75.6553 16.576C75.6553 21.256 78.2953 25.024 81.5353 25.024C84.7753 25.024 87.3913 21.256 87.3913 16.576C87.3913 11.896 84.7753 8.104 81.5353 8.104C78.2953 8.104 75.6553 11.896 75.6553 16.576ZM77.5273 16.576C77.5273 12.016 79.3273 8.344 81.5353 8.344C83.7433 8.344 85.5673 12.016 85.5673 16.576C85.5673 21.112 83.7433 24.808 81.5353 24.808C79.3273 24.808 77.5273 21.112 77.5273 16.576ZM88.0125 25H98.1645L98.8365 22.216C98.3565 22.96 97.5645 23.512 95.5245 23.512H90.3645C92.8365 20.944 98.5005 15.832 98.5005 12.208C98.5005 9.712 96.9645 8.176 94.5405 8.176C92.2125 8.176 90.2925 9.976 89.2365 12.088L89.4285 12.16C90.4845 10.024 92.1645 9.136 93.5565 9.136C95.6205 9.136 96.7245 10.24 96.7245 12.256C96.7245 13.792 96.3165 15.688 93.7965 18.952C93.0285 19.936 89.0925 24.52 88.0125 25ZM101.208 25H111.36L112.032 22.216C111.552 22.96 110.76 23.512 108.72 23.512H103.56C106.032 20.944 111.696 15.832 111.696 12.208C111.696 9.712 110.16 8.176 107.736 8.176C105.408 8.176 103.488 9.976 102.432 12.088L102.624 12.16C103.68 10.024 105.36 9.136 106.752 9.136C108.816 9.136 109.92 10.24 109.92 12.256C109.92 13.792 109.512 15.688 106.992 18.952C106.224 19.936 102.288 24.52 101.208 25Z" fill="#F5F2CB"/>
<path d="M468.712 25L469.384 22.048C468.448 23.632 467.224 24.736 465.304 24.736H460.984V10.12C460.984 9.256 461.224 8.488 462.136 8.2H458.2C459.112 8.488 459.352 9.256 459.352 10.12V23.032C459.352 23.896 459.112 24.712 458.2 25H468.712ZM474.458 25C473.45 24.688 472.73 23.992 472.73 22.888V9.472L483.794 25V10.312C483.794 9.232 484.418 8.512 485.426 8.2H481.826C482.834 8.512 483.506 9.232 483.506 10.312V21.736L473.858 8.2H470.834C471.866 8.536 472.49 9.28 472.49 10.384V22.888C472.49 23.968 471.818 24.688 470.81 25H474.458ZM499.215 18.088V17.152H494.511V18.088H499.215ZM512.714 25C511.85 24.712 511.562 23.896 511.562 23.056V16.6H514.394C515.378 16.6 516.362 16.984 516.674 17.992V14.896C516.338 15.904 515.402 16.312 514.394 16.312H511.562V8.488H515.69C517.61 8.488 519.002 9.376 519.89 11.056L519.242 8.2H508.778C509.69 8.488 509.93 9.256 509.93 10.12V23.032C509.93 23.896 509.69 24.712 508.778 25H512.714ZM527.007 25C529.863 25 532.767 23.656 532.767 20.416C532.767 17.608 530.631 16.144 528.039 15.904C529.791 15.448 531.063 14.104 531.063 12.232C531.063 9.28 528.375 8.2 525.831 8.2H520.383C521.295 8.464 521.535 9.28 521.535 10.12V23.032C521.535 23.872 521.295 24.736 520.383 25H527.007ZM523.143 24.712V16.168H526.551C529.215 16.168 530.919 17.704 530.919 20.416C530.919 23.056 529.359 24.712 526.695 24.712H523.143ZM523.143 8.464H525.663C527.991 8.464 529.359 9.928 529.359 12.232C529.359 14.608 527.919 15.88 525.591 15.88H523.143V8.464ZM546.84 18.088V17.152H542.136V18.088H546.84ZM556.427 10.96C557.219 9.496 558.539 8.536 560.243 8.536H562.283L562.259 23.032C562.259 23.896 562.019 24.712 561.107 25H565.043C564.155 24.712 563.891 23.872 563.891 23.032V8.536H565.979C567.635 8.536 569.027 9.496 569.795 10.936L569.171 8.2H557.027L556.427 10.96ZM571.32 8.2C572.136 8.536 572.616 9.376 572.88 10.168L577.728 24.952L581.76 11.632L586.056 24.952L590.568 10.072C590.856 9.088 591.552 8.44 592.536 8.2H589.152C589.8 8.32 590.376 8.896 590.376 9.592C590.376 9.76 590.352 9.928 590.304 10.072L586.704 21.88L582.936 10.192C582.864 10 582.84 9.808 582.84 9.616C582.84 9.04 583.128 8.392 583.704 8.2H579.648C580.824 8.68 581.184 10.096 581.616 11.176L578.376 21.88L574.608 10.192C574.56 10.024 574.512 9.808 574.512 9.64C574.512 9.064 574.8 8.392 575.376 8.2H571.32Z" fill="#F5F2CB"/>
</svg>
