<svg width="92" height="62" viewBox="0 0 92 62" fill="none" xmlns="http://www.w3.org/2000/svg">
<path d="M4.872 37C3.864 36.688 3.144 35.992 3.144 34.888V21.472L14.208 37V22.312C14.208 21.232 14.832 20.512 15.84 20.2H12.24C13.248 20.512 13.92 21.232 13.92 22.312V33.736L4.272 20.2H1.248C2.28 20.536 2.904 21.28 2.904 22.384V34.888C2.904 35.968 2.232 36.688 1.224 37H4.872ZM19.6108 37C18.8668 36.76 18.2668 36.304 18.2668 35.464C18.2668 35.128 18.3628 34.768 18.4828 34.456L20.0428 30.4H25.9228C26.2828 31.312 27.7948 34.912 27.7948 35.608C27.7948 36.184 27.3868 36.808 26.8348 37H31.0588C30.2188 36.736 29.7148 35.896 29.4268 35.128L23.6908 19.984L17.8828 35.176C17.5948 35.896 16.8508 36.736 16.1068 37H19.6108ZM20.1148 30.136L22.9708 22.648L25.7788 30.136H20.1148ZM33.0053 22.96C33.7973 21.496 35.1173 20.536 36.8213 20.536H38.8613L38.8372 35.032C38.8372 35.896 38.5973 36.712 37.6853 37H41.6213C40.7333 36.712 40.4693 35.872 40.4693 35.032V20.536H42.5573C44.2133 20.536 45.6053 21.496 46.3733 22.936L45.7493 20.2H33.6053L33.0053 22.96ZM48.2106 20.2C49.0986 20.464 49.3626 21.28 49.3626 22.12V31.192C49.3626 35.056 51.4746 37.168 55.3386 37.168C59.1306 37.168 60.7386 34.864 60.7386 31.264V22.336C60.7386 21.232 61.4106 20.512 62.4426 20.2H58.7706C59.7786 20.512 60.4746 21.208 60.4746 22.312V31.24C60.4746 34.408 59.0826 36.592 55.6986 36.592C52.4586 36.592 50.9946 34.024 50.9946 31.072V22.12C50.9946 21.28 51.2586 20.464 52.1466 20.2H48.2106ZM64.7631 20.2C65.6511 20.464 65.9151 21.28 65.9151 22.12V35.032C65.9151 35.896 65.6751 36.712 64.7631 37H68.6991C67.8351 36.712 67.5471 35.92 67.5471 35.08V30.4H70.7871L75.0111 37H77.6991C77.0031 36.712 76.3311 36.256 75.9231 35.608L72.5151 30.28C75.0351 29.752 76.9311 28 76.9311 25.312C76.9311 21.616 73.6911 20.2 70.4511 20.2H64.7631ZM70.3551 20.488C73.3551 20.488 75.1791 22.312 75.1791 25.312C75.1791 28.24 73.2831 30.136 70.3551 30.136H67.5471V20.488H70.3551ZM89.784 37L90.48 34.144C89.592 35.824 87.96 36.712 86.088 36.712H81.984V28.6H84.816C85.848 28.6 86.76 28.936 87.096 29.992V26.896C86.76 27.952 85.848 28.312 84.816 28.312H81.984V20.488H86.112C88.032 20.488 89.424 21.376 90.312 23.056L89.664 20.2H79.2C80.112 20.488 80.352 21.256 80.352 22.12V35.032C80.352 35.896 80.112 36.712 79.2 37H89.784Z" fill="#F5F2CB"/>
<g style="mix-blend-mode:overlay">
<mask id="path-2-inside-1_1184_16" fill="white">
<path d="M72.517 45.543C70.1741 50.5242 66.2992 54.7459 61.3825 57.6742C56.4657 60.6024 50.7279 62.1058 44.8946 61.9942C39.0613 61.8826 33.3944 60.161 28.6107 57.047C23.827 53.9331 20.1413 49.5668 18.0196 44.5002L20.0312 43.7681C21.9976 48.4639 25.4135 52.5106 29.8471 55.3966C34.2806 58.2825 39.5326 59.8781 44.9389 59.9816C50.3452 60.085 55.663 58.6917 60.2198 55.9778C64.7767 53.2638 68.3679 49.3512 70.5393 44.7346L72.517 45.543Z"/>
</mask>
<path d="M72.517 45.543C70.1741 50.5242 66.2992 54.7459 61.3825 57.6742C56.4657 60.6024 50.7279 62.1058 44.8946 61.9942C39.0613 61.8826 33.3944 60.161 28.6107 57.047C23.827 53.9331 20.1413 49.5668 18.0196 44.5002L20.0312 43.7681C21.9976 48.4639 25.4135 52.5106 29.8471 55.3966C34.2806 58.2825 39.5326 59.8781 44.9389 59.9816C50.3452 60.085 55.663 58.6917 60.2198 55.9778C64.7767 53.2638 68.3679 49.3512 70.5393 44.7346L72.517 45.543Z" fill="url(#paint0_linear_1184_16)"/>
<path d="M72.517 45.543C70.1741 50.5242 66.2992 54.7459 61.3825 57.6742C56.4657 60.6024 50.7279 62.1058 44.8946 61.9942C39.0613 61.8826 33.3944 60.161 28.6107 57.047C23.827 53.9331 20.1413 49.5668 18.0196 44.5002L20.0312 43.7681C21.9976 48.4639 25.4135 52.5106 29.8471 55.3966C34.2806 58.2825 39.5326 59.8781 44.9389 59.9816C50.3452 60.085 55.663 58.6917 60.2198 55.9778C64.7767 53.2638 68.3679 49.3512 70.5393 44.7346L72.517 45.543Z" stroke="#9E9E4D" stroke-width="4" mask="url(#path-2-inside-1_1184_16)"/>
</g>
<defs>
<linearGradient id="paint0_linear_1184_16" x1="7" y1="-0.457627" x2="41.5811" y2="64.0992" gradientUnits="userSpaceOnUse">
<stop stop-color="#9E9E4D"/>
<stop offset="1" stop-color="#9E9E4D" stop-opacity="0"/>
</linearGradient>
</defs>
</svg>
