<svg width="594" height="107" viewBox="0 0 594 107" fill="none" xmlns="http://www.w3.org/2000/svg">
<path d="M4.872 45C3.864 44.688 3.144 43.992 3.144 42.888V29.472L14.208 45V30.312C14.208 29.232 14.832 28.512 15.84 28.2H12.24C13.248 28.512 13.92 29.232 13.92 30.312V41.736L4.272 28.2H1.248C2.28 28.536 2.904 29.28 2.904 30.384V42.888C2.904 43.968 2.232 44.688 1.224 45H4.872ZM19.6108 45C18.8668 44.76 18.2668 44.304 18.2668 43.464C18.2668 43.128 18.3628 42.768 18.4828 42.456L20.0428 38.4H25.9228C26.2828 39.312 27.7948 42.912 27.7948 43.608C27.7948 44.184 27.3868 44.808 26.8348 45H31.0588C30.2188 44.736 29.7148 43.896 29.4268 43.128L23.6908 27.984L17.8828 43.176C17.5948 43.896 16.8508 44.736 16.1068 45H19.6108ZM20.1148 38.136L22.9708 30.648L25.7788 38.136H20.1148ZM33.0053 30.96C33.7973 29.496 35.1173 28.536 36.8213 28.536H38.8613L38.8372 43.032C38.8372 43.896 38.5973 44.712 37.6853 45H41.6213C40.7333 44.712 40.4693 43.872 40.4693 43.032V28.536H42.5573C44.2133 28.536 45.6053 29.496 46.3733 30.936L45.7493 28.2H33.6053L33.0053 30.96ZM48.2106 28.2C49.0986 28.464 49.3626 29.28 49.3626 30.12V39.192C49.3626 43.056 51.4746 45.168 55.3386 45.168C59.1306 45.168 60.7386 42.864 60.7386 39.264V30.336C60.7386 29.232 61.4106 28.512 62.4426 28.2H58.7706C59.7786 28.512 60.4746 29.208 60.4746 30.312V39.24C60.4746 42.408 59.0826 44.592 55.6986 44.592C52.4586 44.592 50.9946 42.024 50.9946 39.072V30.12C50.9946 29.28 51.2586 28.464 52.1466 28.2H48.2106ZM64.7631 28.2C65.6511 28.464 65.9151 29.28 65.9151 30.12V43.032C65.9151 43.896 65.6751 44.712 64.7631 45H68.6991C67.8351 44.712 67.5471 43.92 67.5471 43.08V38.4H70.7871L75.0111 45H77.6991C77.0031 44.712 76.3311 44.256 75.9231 43.608L72.5151 38.28C75.0351 37.752 76.9311 36 76.9311 33.312C76.9311 29.616 73.6911 28.2 70.4511 28.2H64.7631ZM70.3551 28.488C73.3551 28.488 75.1791 30.312 75.1791 33.312C75.1791 36.24 73.2831 38.136 70.3551 38.136H67.5471V28.488H70.3551ZM89.784 45L90.48 42.144C89.592 43.824 87.96 44.712 86.088 44.712H81.984V36.6H84.816C85.848 36.6 86.76 36.936 87.096 37.992V34.896C86.76 35.952 85.848 36.312 84.816 36.312H81.984V28.488H86.112C88.032 28.488 89.424 29.376 90.312 31.056L89.664 28.2H79.2C80.112 28.488 80.352 29.256 80.352 30.12V43.032C80.352 43.896 80.112 44.712 79.2 45H89.784Z" fill="#F5F2CB"/>
<g style="mix-blend-mode:overlay">
<mask id="path-2-inside-1_1181_11" fill="white">
<path d="M72.517 53.543C70.1741 58.5242 66.2992 62.7459 61.3825 65.6742C56.4657 68.6024 50.7279 70.1058 44.8946 69.9942C39.0613 69.8826 33.3944 68.161 28.6107 65.047C23.827 61.9331 20.1413 57.5668 18.0196 52.5002L20.0312 51.7681C21.9976 56.4639 25.4135 60.5106 29.8471 63.3966C34.2806 66.2825 39.5326 67.8781 44.9389 67.9816C50.3452 68.085 55.663 66.6917 60.2198 63.9778C64.7767 61.2638 68.3679 57.3512 70.5393 52.7346L72.517 53.543Z"/>
</mask>
<path d="M72.517 53.543C70.1741 58.5242 66.2992 62.7459 61.3825 65.6742C56.4657 68.6024 50.7279 70.1058 44.8946 69.9942C39.0613 69.8826 33.3944 68.161 28.6107 65.047C23.827 61.9331 20.1413 57.5668 18.0196 52.5002L20.0312 51.7681C21.9976 56.4639 25.4135 60.5106 29.8471 63.3966C34.2806 66.2825 39.5326 67.8781 44.9389 67.9816C50.3452 68.085 55.663 66.6917 60.2198 63.9778C64.7767 61.2638 68.3679 57.3512 70.5393 52.7346L72.517 53.543Z" fill="url(#paint0_linear_1181_11)"/>
<path d="M72.517 53.543C70.1741 58.5242 66.2992 62.7459 61.3825 65.6742C56.4657 68.6024 50.7279 70.1058 44.8946 69.9942C39.0613 69.8826 33.3944 68.161 28.6107 65.047C23.827 61.9331 20.1413 57.5668 18.0196 52.5002L20.0312 51.7681C21.9976 56.4639 25.4135 60.5106 29.8471 63.3966C34.2806 66.2825 39.5326 67.8781 44.9389 67.9816C50.3452 68.085 55.663 66.6917 60.2198 63.9778C64.7767 61.2638 68.3679 57.3512 70.5393 52.7346L72.517 53.543Z" stroke="#9E9E4D" stroke-width="4" mask="url(#path-2-inside-1_1181_11)"/>
</g>
<path opacity="0.64" fill-rule="evenodd" clip-rule="evenodd" d="M549.508 14.8867C573.106 14.8867 577.575 44.8025 577.575 68.4014C577.575 82.6935 563.8 91.8867 549.508 91.8867C529.102 91.8867 502.832 88.8066 502.832 68.4014C502.832 40.6702 519.105 18.5977 549.508 14.8867Z" stroke="#D7D7AD"/>
<path opacity="0.64" fill-rule="evenodd" clip-rule="evenodd" d="M571.415 29.0019C589.906 43.6651 574.819 69.8818 560.156 88.3722C551.275 99.5705 534.77 98.2143 523.571 89.3338C507.583 76.655 488.913 57.9186 501.592 41.9304C518.823 20.2022 545.289 13.0192 571.415 29.0019Z" stroke="#D7D7AD"/>
<line x1="524.23" y1="53.3867" x2="556.23" y2="53.3867" stroke="#9E9E4D"/>
<line x1="524.23" y1="60.3867" x2="556.23" y2="60.3867" stroke="#9E9E4D"/>
<defs>
<linearGradient id="paint0_linear_1181_11" x1="7" y1="7.54237" x2="41.5811" y2="72.0992" gradientUnits="userSpaceOnUse">
<stop stop-color="#9E9E4D"/>
<stop offset="1" stop-color="#9E9E4D" stop-opacity="0"/>
</linearGradient>
</defs>
</svg>
